# xmcd CD database file
#
# Track frame offsets:
#	150
#	13812
#	26372
#	38890
#	58212
#	65877
#	88727
#	107367
#	123952
#	140142
#	155275
#
# Disc length: 2359 seconds
#
# Revision: 0
# Processed by: cddbd v1.5.1PL0 Copyright (c) Steve Scherf et al.
# Submitted via: CDex 1.51
#
DISCID=9509350b
DTITLE=Dave Mason - Mariposa De Oro
DYEAR=1978
DGENRE=Rock
TTITLE0=Don't It Make You Wonder
TTITLE1=Searchin' (For A Feeling)
TTITLE2=All Gotta Go Sometime
TTITLE3=Warm Desire
TTITLE4=Warm And Tender Love
TTITLE5=Will You Still Love Me Tomorrow
TTITLE6=Share Your Love
TTITLE7=Bird On The Wind
TTITLE8=So Good To Be Home
TTITLE9=Words
TTITLE10=No Doubt About It
EXTD=YEAR: 1978
EXTT0=
EXTT1=
EXTT2=
EXTT3=
EXTT4=
EXTT5=
EXTT6=
EXTT7=
EXTT8=
EXTT9=
EXTT10=
PLAYORDER=
